<svg width="216" height="143" viewBox="0 0 216 143" fill="none" xmlns="http://www.w3.org/2000/svg">
<g clip-path="url(#clip0_25_1268)">
<path d="M77.4793 82.2978C84.8816 69.3259 99.0018 59.3655 113.949 60.3251C102.924 72.2692 96.4942 87.7135 95.7988 103.925C95.5534 110.178 95.934 117.159 91.7662 121.841C89.173 124.755 85.2091 126.166 81.3118 126.462C77.4142 126.758 73.5176 126.056 69.6722 125.358L68.7394 125.643C68.3842 110.726 70.0769 95.2697 77.4793 82.2978Z" fill="#F0F0F0"/>
<path d="M113.971 60.6374C102.918 65.9382 93.4931 74.7912 87.7073 85.588C86.4565 87.9223 85.3915 90.3986 84.927 93.0169C84.4622 95.6364 84.7868 98.1299 85.6849 100.618C86.506 102.892 87.6103 105.124 87.862 107.558C88.1274 110.123 87.1799 112.522 85.4744 114.425C83.3877 116.754 80.5853 118.198 77.7956 119.514C74.6981 120.976 71.4576 122.446 69.2637 125.174C68.9979 125.504 68.4985 125.074 68.7639 124.744C72.5809 119.997 79.1146 119.105 83.6454 115.282C85.7596 113.497 87.3468 111.068 87.2466 108.221C87.159 105.731 86.0223 103.429 85.171 101.133C84.2771 98.7224 83.8313 96.2986 84.1518 93.7285C84.4798 91.0994 85.4498 88.5763 86.6353 86.2205C89.3088 80.9074 92.9676 76.0296 97.159 71.813C101.976 66.9662 107.59 62.976 113.758 60.0151C114.14 59.832 114.351 60.4555 113.971 60.6374Z" fill="white"/>
<path d="M89.4022 81.9797C87.7077 80.7454 86.5087 78.9512 86.0196 76.9176C85.5304 74.884 85.7827 72.7434 86.7316 70.878C86.9249 70.5013 87.5217 70.7828 87.3282 71.1601C86.4414 72.8955 86.2065 74.8895 86.6659 76.7822C87.1253 78.675 88.2488 80.3418 89.8335 81.4819C90.1776 81.73 89.7443 82.2264 89.4022 81.9797Z" fill="white"/>
<path d="M85.1162 99.5192C89.3622 98.9012 93.2185 96.7115 95.9159 93.3869C96.1829 93.0573 96.6823 93.4874 96.4156 93.8166C93.6021 97.2711 89.5845 99.5416 85.1645 100.175C84.7432 100.235 84.6971 99.579 85.1162 99.5192Z" fill="white"/>
<path d="M102.302 67.7754C102.858 68.3891 103.558 68.8557 104.339 69.1332C105.121 69.4108 105.959 69.4906 106.78 69.3656C107.2 69.3002 107.246 69.9565 106.828 70.0215C105.921 70.1554 104.995 70.0661 104.131 69.7614C103.267 69.4566 102.491 68.9457 101.871 68.2733C101.807 68.2148 101.768 68.1342 101.762 68.0481C101.755 67.962 101.782 67.8766 101.837 67.8095C101.894 67.7439 101.975 67.7035 102.062 67.6971C102.15 67.6907 102.236 67.7189 102.302 67.7754Z" fill="white"/>
<path d="M143.69 101.247C143.429 101.295 143.167 101.343 142.904 101.397C139.394 102.064 135.944 103.013 132.589 104.237C132.328 104.327 132.065 104.423 131.807 104.521C123.755 107.554 116.338 112.051 109.933 117.782C107.387 120.064 105.019 122.537 102.849 125.177C99.8522 128.824 96.8946 133.016 92.9789 135.394C92.5732 135.647 92.1522 135.874 91.7182 136.075L69.1613 126.755C69.1207 126.708 69.0777 126.666 69.0369 126.619L68.1191 126.288C68.2215 126.144 68.3308 125.997 68.4331 125.853C68.4922 125.769 68.5562 125.687 68.6152 125.604C68.6562 125.548 68.6974 125.493 68.7312 125.441C68.7447 125.423 68.7586 125.404 68.77 125.391C68.8038 125.339 68.8407 125.294 68.8724 125.247C69.4809 124.423 70.0963 123.602 70.7185 122.783C70.7207 122.778 70.7207 122.778 70.7278 122.775C75.4852 116.551 80.8059 110.667 86.8539 105.775C87.0359 105.628 87.2198 105.476 87.4121 105.333C90.1505 103.143 93.0641 101.18 96.1236 99.4625C97.8019 98.5277 99.5267 97.678 101.291 96.9169C105.854 94.959 110.698 93.7283 115.645 93.27C125.508 92.3577 135.553 94.5976 143.117 100.77C143.31 100.928 143.499 101.084 143.69 101.247Z" fill="#F0F0F0"/>
<path d="M143.52 101.511C131.491 99.1139 118.615 100.53 107.47 105.68C105.061 106.794 102.714 108.132 100.761 109.944C98.8064 111.757 97.5586 113.942 96.772 116.468C96.053 118.776 95.5858 121.22 94.316 123.315C92.9775 125.522 90.7713 126.869 88.2591 127.366C85.1853 127.974 82.0755 127.446 79.0523 126.824C75.6957 126.133 72.2202 125.363 68.8197 126.225C68.4077 126.33 68.269 125.687 68.6804 125.582C74.5967 124.082 80.3528 127.288 86.2813 126.953C89.0476 126.796 91.7833 125.808 93.424 123.475C94.8586 121.435 95.3425 118.914 96.0503 116.571C96.7935 114.11 97.9024 111.907 99.7117 110.047C101.562 108.145 103.862 106.712 106.232 105.542C111.578 102.903 117.447 101.203 123.342 100.35C130.118 99.3697 137.012 99.5508 143.726 100.886C144.141 100.969 143.933 101.593 143.52 101.511Z" fill="white"/>
<path d="M111.005 103.816C110.398 101.814 110.525 99.6621 111.363 97.745C112.202 95.8279 113.697 94.27 115.582 93.3498C115.964 93.1649 116.27 93.7476 115.888 93.9328C114.131 94.7865 112.738 96.2377 111.961 98.0245C111.184 99.8114 111.073 101.816 111.65 103.677C111.775 104.081 111.129 104.218 111.005 103.816Z" fill="white"/>
<path d="M96.9817 115.249C100.746 117.303 105.148 117.867 109.311 116.83C109.723 116.727 109.862 117.37 109.45 117.473C105.116 118.544 100.536 117.947 96.624 115.802C96.2512 115.597 96.611 115.046 96.9817 115.249Z" fill="white"/>
<path d="M129.889 100.211C129.962 101.035 130.239 101.827 130.695 102.517C131.151 103.208 131.773 103.774 132.503 104.166C132.878 104.366 132.518 104.918 132.145 104.719C131.34 104.282 130.655 103.656 130.149 102.894C129.643 102.132 129.333 101.259 129.244 100.35C129.228 100.265 129.246 100.178 129.293 100.105C129.34 100.032 129.413 99.9803 129.497 99.9594C129.582 99.9414 129.672 99.9578 129.745 100.005C129.818 100.052 129.87 100.126 129.889 100.211Z" fill="white"/>
<path d="M100.72 116.624C97.5613 101.408 93.6125 96.3346 93.6125 96.3346L92.104 95.1692L90.2898 93.7654L90.2986 93.5849L89.8683 93.4392L89.7672 93.361L89.6016 93.2343L89.5749 93.2628L89.5187 93.3208L81.3095 90.541L70.8947 87.0168L66.072 80.7722C65.2865 79.7551 64.2753 78.9331 63.1176 78.3706C61.9599 77.808 60.6871 77.5202 59.399 77.5297L43.9969 77.6433C41.9143 77.6586 39.9128 78.4495 38.3859 79.8604L28.2623 89.215L12.4878 96.7201L12.4612 96.6936L12.2955 96.8115L9.85821 97.9724L9.95879 98.494L8.45024 99.5784C8.45024 99.5784 4.50144 104.299 1.34239 118.457C0.538758 122.06 0.143183 129.788 0.000401246 139.311C-0.00677065 139.793 0.0822651 140.271 0.262329 140.718C0.442393 141.166 0.709895 141.573 1.04928 141.916C1.38866 142.259 1.79316 142.532 2.23925 142.718C2.68534 142.904 3.16412 143 3.64775 143H87.9027L98.4188 143C98.9021 143 99.3805 142.904 99.8263 142.718C100.272 142.532 100.676 142.26 101.016 141.917C101.355 141.574 101.623 141.168 101.803 140.721C101.983 140.274 102.073 139.796 102.066 139.315C101.927 128.952 101.531 120.531 100.72 116.624Z" fill="#3F3D56"/>
<path d="M111.531 13.2699C108.253 13.2699 105.109 14.5671 102.791 16.8762C100.473 19.1852 99.1709 22.317 99.1709 25.5825C99.1709 28.848 100.473 31.9798 102.791 34.2889C105.109 36.5979 108.253 37.8952 111.531 37.8952H203.64C206.918 37.8952 210.062 36.5979 212.38 34.2889C214.698 31.9798 216 28.848 216 25.5825C216 22.317 214.698 19.1852 212.38 16.8762C210.062 14.5671 206.918 13.2699 203.64 13.2699H111.531Z" fill="#E5E5E5"/>
<path d="M111.531 15.7617C108.916 15.7617 106.409 16.7964 104.56 18.6381C102.711 20.4799 101.672 22.9779 101.672 25.5825C101.672 28.1871 102.711 30.6851 104.56 32.5269C106.409 34.3686 108.916 35.4033 111.531 35.4033H203.64C206.255 35.4033 208.762 34.3686 210.611 32.5269C212.46 30.6851 213.499 28.1871 213.499 25.5825C213.499 22.9779 212.46 20.4799 210.611 18.6381C208.762 16.7964 206.255 15.7617 203.64 15.7617H111.531Z" fill="white"/>
<path d="M54.1168 71.7655C65.261 71.7655 74.2952 62.7658 74.2952 51.664C74.2952 40.5623 65.261 31.5626 54.1168 31.5626C42.9726 31.5626 33.9385 40.5623 33.9385 51.664C33.9385 62.7658 42.9726 71.7655 54.1168 71.7655Z" fill="#9E616A"/>
<path d="M48.9547 70.7812C48.8685 70.5922 48.7825 70.4024 48.6968 70.2121C48.7298 70.2131 48.7625 70.2179 48.7956 70.2187L48.9547 70.7812Z" fill="#2F2E41"/>
<path d="M33.377 32.4767C34.3976 31.6657 35.5904 30.9194 36.8952 30.9614C38.2 31.0033 39.5232 32.1773 39.2528 33.4496C41.6495 29.2223 45.4643 25.9709 50.0277 24.2663C54.591 22.5617 59.6112 22.5128 64.2071 24.1281C67.4501 25.2679 70.6304 27.5482 71.3754 30.8926C71.5666 31.7512 71.6077 32.6926 72.1458 33.3897C72.8242 34.2687 74.1223 34.4675 75.1912 34.1583C75.2019 34.1552 75.2126 34.1521 75.2232 34.1489C75.4038 34.0875 75.5987 34.0815 75.7828 34.1316C75.9668 34.1817 76.1316 34.2857 76.2556 34.4301C76.3797 34.5745 76.4574 34.7527 76.4788 34.9416C76.5001 35.1305 76.464 35.3214 76.3752 35.4897L75.4576 37.1945C76.6143 37.4513 77.8162 37.4259 78.9609 37.1203C79.1511 37.0706 79.352 37.0807 79.5361 37.1493C79.7203 37.2179 79.8786 37.3415 79.9894 37.5033C80.1002 37.665 80.1581 37.857 80.155 38.0528C80.152 38.2486 80.0882 38.4387 79.9725 38.597C76.9468 42.7353 71.8918 45.4075 66.7334 45.3761C63.0671 45.3539 59.363 44.0951 55.7948 44.935C54.4145 45.2599 53.1246 45.8886 52.0199 46.7749C50.9153 47.6612 50.0238 48.7826 49.4109 50.0569C48.7981 51.3311 48.4793 52.7259 48.4782 54.1389C48.477 55.5519 48.7934 56.9472 49.4041 58.2225C48.308 57.0281 46.189 57.3109 45.0677 58.4819C43.9465 59.653 43.6562 61.4009 43.7692 63.0154C43.9419 65.4846 44.9131 67.8113 45.9369 70.0758C37.3533 69.8066 29.2345 63.8083 26.5018 55.6953C23.7575 47.5484 26.6336 37.8356 33.377 32.4767Z" fill="#2F2E41"/>
<path opacity="0.2" d="M19.8608 112.03L25.5204 142.705L28.9163 143L19.8608 112.03Z" fill="black"/>
<path opacity="0.2" d="M82.2019 109.717L76.5424 142.683L73.1465 143L82.2019 109.717Z" fill="black"/>
<path d="M38.2044 22.153C37.1193 22.6044 35.987 22.1097 35.5121 20.9768C35.03 19.8266 35.4803 18.659 36.5828 18.2004C37.6855 17.7417 38.7976 18.2376 39.2875 19.4064C39.7701 20.5576 39.3247 21.687 38.2044 22.153ZM36.1258 15.9364L35.263 16.2953C35.0474 16.3839 34.8063 16.3886 34.5874 16.3087C34.3685 16.2287 34.1877 16.0698 34.0808 15.8633L34.0381 15.7802C33.1097 14.1123 33.0034 12.0851 33.7238 9.75831C34.3912 7.67102 34.6684 6.20304 34.111 4.87313C33.4664 3.3355 32.0902 2.85384 30.3351 3.55158C29.6544 3.83474 29.4378 3.83022 28.9021 4.3596C28.7856 4.47615 28.6467 4.56813 28.4937 4.63006C28.3407 4.69199 28.1768 4.72259 28.0117 4.72005C27.8521 4.71817 27.6945 4.6843 27.5483 4.62045C27.4021 4.5566 27.2704 4.46407 27.1608 4.34839C26.9499 4.12545 26.8316 3.83106 26.8301 3.52467C26.8285 3.21828 26.9438 2.92272 27.1525 2.69767C28.0529 1.75874 29.1388 1.01592 30.3419 0.516097C34.1128 -1.05249 36.0111 1.26331 36.8797 3.33573C37.7294 5.36279 37.2515 7.24357 36.4835 9.67937C35.8399 11.7034 35.8774 13.2031 36.6085 14.6943C36.6612 14.8071 36.6906 14.9293 36.6948 15.0536C36.699 15.1779 36.6779 15.3018 36.6328 15.4178C36.5877 15.5338 36.5196 15.6396 36.4324 15.7287C36.3453 15.8178 36.241 15.8884 36.1258 15.9364Z" fill="#6C63FF"/>
<path d="M131.876 31.4548H113.55C113.492 31.4552 113.434 31.4441 113.38 31.4222C113.326 31.4003 113.277 31.368 113.236 31.3271C113.195 31.2862 113.162 31.2376 113.139 31.1841C113.117 31.1305 113.105 31.0731 113.105 31.0151C113.105 30.9571 113.117 30.8997 113.139 30.8461C113.162 30.7926 113.195 30.7439 113.236 30.7031C113.277 30.6622 113.326 30.6299 113.38 30.608C113.434 30.586 113.492 30.5749 113.55 30.5753H131.876C131.993 30.5761 132.104 30.6228 132.186 30.7052C132.269 30.7876 132.315 30.899 132.315 31.0151C132.315 31.1312 132.269 31.2426 132.186 31.325C132.104 31.4073 131.993 31.454 131.876 31.4548Z" fill="#6C63FF"/>
<path d="M155.124 31.6014H136.798C136.74 31.6018 136.682 31.5907 136.628 31.5688C136.574 31.5469 136.525 31.5145 136.484 31.4736C136.443 31.4328 136.41 31.3842 136.387 31.3306C136.365 31.2771 136.354 31.2196 136.354 31.1616C136.354 31.1036 136.365 31.0462 136.387 30.9927C136.41 30.9391 136.443 30.8905 136.484 30.8496C136.525 30.8088 136.574 30.7764 136.628 30.7545C136.682 30.7326 136.74 30.7215 136.798 30.7219H155.124C155.183 30.7215 155.24 30.7326 155.294 30.7545C155.348 30.7764 155.397 30.8088 155.438 30.8496C155.48 30.8905 155.513 30.9391 155.535 30.9927C155.557 31.0462 155.569 31.1036 155.569 31.1616C155.569 31.2196 155.557 31.2771 155.535 31.3306C155.513 31.3842 155.48 31.4328 155.438 31.4736C155.397 31.5145 155.348 31.5469 155.294 31.5688C155.24 31.5907 155.183 31.6018 155.124 31.6014Z" fill="#6C63FF"/>
<path d="M178.373 31.748H160.046C159.93 31.7472 159.818 31.7005 159.736 31.6181C159.654 31.5357 159.608 31.4243 159.608 31.3082C159.608 31.1921 159.654 31.0807 159.736 30.9983C159.818 30.9159 159.93 30.8693 160.046 30.8685H178.373C178.431 30.8681 178.489 30.8792 178.543 30.9011C178.596 30.923 178.645 30.9553 178.687 30.9962C178.728 31.0371 178.761 31.0857 178.783 31.1392C178.806 31.1928 178.817 31.2502 178.817 31.3082C178.817 31.3662 178.806 31.4236 178.783 31.4772C178.761 31.5307 178.728 31.5793 178.687 31.6202C178.645 31.6611 178.596 31.6934 178.543 31.7153C178.489 31.7373 178.431 31.7483 178.373 31.748Z" fill="#6C63FF"/>
<path d="M201.621 31.8945H183.294C183.178 31.8937 183.066 31.8471 182.984 31.7647C182.902 31.6823 182.856 31.5709 182.856 31.4548C182.856 31.3387 182.902 31.2273 182.984 31.1449C183.066 31.0625 183.178 31.0159 183.294 31.0151H201.621C201.737 31.0159 201.849 31.0625 201.931 31.1449C202.013 31.2273 202.059 31.3387 202.059 31.4548C202.059 31.5709 202.013 31.6823 201.931 31.7647C201.849 31.8471 201.737 31.8937 201.621 31.8945Z" fill="#6C63FF"/>
<path d="M122.673 27.4078C124.554 27.4078 126.079 25.8887 126.079 24.0147C126.079 22.1408 124.554 20.6216 122.673 20.6216C120.792 20.6216 119.267 22.1408 119.267 24.0147C119.267 25.8887 120.792 27.4078 122.673 27.4078Z" fill="#6C63FF"/>
<path d="M146.061 27.4078C147.943 27.4078 149.467 25.8887 149.467 24.0147C149.467 22.1408 147.943 20.6216 146.061 20.6216C144.18 20.6216 142.655 22.1408 142.655 24.0147C142.655 25.8887 144.18 27.4078 146.061 27.4078Z" fill="#6C63FF"/>
<path d="M169.45 27.4078C171.331 27.4078 172.856 25.8887 172.856 24.0147C172.856 22.1408 171.331 20.6216 169.45 20.6216C167.569 20.6216 166.044 22.1408 166.044 24.0147C166.044 25.8887 167.569 27.4078 169.45 27.4078Z" fill="#6C63FF"/>
<path d="M192.839 27.4078C194.72 27.4078 196.245 25.8887 196.245 24.0147C196.245 22.1408 194.72 20.6216 192.839 20.6216C190.958 20.6216 189.433 22.1408 189.433 24.0147C189.433 25.8887 190.958 27.4078 192.839 27.4078Z" fill="#6C63FF"/>
</g>
<defs>
<clipPath id="clip0_25_1268">
<rect width="216" height="143" fill="white"/>
</clipPath>
</defs>
</svg>
