<svg width="112" height="130" viewBox="0 0 112 130" fill="none" xmlns="http://www.w3.org/2000/svg">
<g clip-path="url(#clip0_25_1470)">
<path d="M85.444 129.906H42.8958C37.3517 129.906 32.8413 125.394 32.8413 119.849V10.0566C32.8413 4.51133 37.3517 0 42.8958 0H85.444C90.9881 0 95.4984 4.51133 95.4984 10.0566V119.849C95.4984 125.394 90.9881 129.906 85.444 129.906Z" fill="#2F2E41"/>
<path d="M85.4873 127.192H42.8524C38.6924 127.192 35.3081 123.806 35.3081 119.646V9.64311C35.3081 5.48236 38.6924 2.09723 42.8524 2.09723H85.4873C89.6472 2.09723 93.0316 5.48236 93.0316 9.64311V119.646C93.0316 123.806 89.6472 127.192 85.4873 127.192Z" fill="white"/>
<path d="M70.8306 9.25252H57.2631C55.6989 9.25252 54.4263 7.9797 54.4263 6.41508C54.4263 4.85046 55.6989 3.57764 57.2631 3.57764H70.8306C72.3949 3.57764 73.6674 4.85046 73.6674 6.41508C73.6674 7.9797 72.3949 9.25252 70.8306 9.25252Z" fill="#2F2E41"/>
<path d="M112 129.84H0.103027" stroke="#090814" stroke-width="1.5" stroke-miterlimit="10"/>
<path d="M80.6421 93.7343H66.6382C66.0913 93.7343 65.6479 94.1777 65.6479 94.7247V98.9712C65.6479 99.5182 66.0913 99.9617 66.6382 99.9617H80.6421C81.189 99.9617 81.6324 99.5182 81.6324 98.9712V94.7247C81.6324 94.1777 81.189 93.7343 80.6421 93.7343Z" fill="white"/>
<path d="M80.5615 100.135H66.7191C66.0331 100.135 65.4751 99.5766 65.4751 98.8905V94.8056C65.4751 94.1195 66.0331 93.5614 66.7191 93.5614H80.5615C81.2474 93.5614 81.8055 94.1195 81.8055 94.8056V98.8905C81.8055 99.5766 81.2474 100.135 80.5615 100.135Z" fill="#6C63FF"/>
<path d="M59.6949 93.7343H45.691C45.144 93.7343 44.7007 94.1777 44.7007 94.7247V98.9712C44.7007 99.5182 45.144 99.9617 45.691 99.9617H59.6949C60.2418 99.9617 60.6851 99.5182 60.6851 98.9712V94.7247C60.6851 94.1777 60.2418 93.7343 59.6949 93.7343Z" fill="white" stroke="#090814" stroke-width="1.5" stroke-miterlimit="10"/>
<path d="M59.6142 100.135H45.7718C45.0859 100.135 44.5278 99.5766 44.5278 98.8905V94.8056C44.5278 94.1195 45.0859 93.5614 45.7718 93.5614H59.6142C60.3002 93.5614 60.8582 94.1195 60.8582 94.8056V98.8905C60.8582 99.5766 60.3002 100.135 59.6142 100.135Z" fill="#DCDCDC"/>
<path d="M79.0895 32.7045H47.6866C46.328 32.7045 45.2266 33.8061 45.2266 35.1651V66.5747C45.2266 67.9336 46.328 69.0353 47.6866 69.0353H79.0895C80.4482 69.0353 81.5496 67.9336 81.5496 66.5747V35.1651C81.5496 33.8061 80.4482 32.7045 79.0895 32.7045Z" fill="#DCDCDC"/>
<path d="M76.8633 52.3237C76.8633 56.6748 74.0014 60.3575 70.0571 61.596L69.6184 64.4913L69.2904 66.669L68.9337 69.0353H62.2053L59.7001 66.9479L58.6013 66.0334C58.6013 66.0334 59.0359 65.4757 59.614 64.5856H59.6181C59.9667 64.0484 60.3726 63.3882 60.758 62.6501C61.0942 62.0225 61.4222 61.3377 61.701 60.6324C61.7256 60.5625 61.7543 60.4928 61.7789 60.4231C59.1589 58.6844 57.4287 55.707 57.4287 52.3237C57.4287 46.9555 61.7789 42.6042 67.146 42.6042C71.0944 42.6042 74.4975 44.9623 76.0145 48.3456C76.5599 49.5597 76.8633 50.9047 76.8633 52.3237Z" fill="#F0A0A3"/>
<path d="M62.0486 60.7207C62.0486 60.7207 60.1958 51.3443 62.8738 52.4603C65.5517 53.5764 64.8351 55.4631 64.8351 55.4631L67.4015 51.6685V47.3159L69.0752 45.4186L76.2165 48.4319C76.2165 48.4319 80.0103 37.2713 69.1868 40.8427C69.1868 40.8427 59.9255 37.0481 57.2476 43.6329C50.8986 58.4662 62.0486 60.7207 62.0486 60.7207Z" fill="#2F2E43"/>
<path d="M73.2057 69.0353H55.1855L59.0807 65.0532C59.2488 64.881 59.4251 64.7292 59.6137 64.5856H59.6178C61.0323 63.5235 62.9512 63.3471 64.5543 64.1879L69.29 66.669L73.1605 68.6991L73.2057 69.0353Z" fill="#2F2E43"/>
<path d="M74.2023 69.0353H67.8594C66.658 68.2807 65.3132 67.4441 63.9397 66.6035C63.4477 66.3039 62.9105 66.1688 62.3489 66.1688C61.5124 66.1688 60.6103 66.4639 59.7001 66.9479C58.7161 67.4728 57.7198 68.2151 56.7767 69.0353H49.1915L49.3678 68.699L48.8676 67.7557C47.8754 65.8774 49.5851 63.8353 52.3978 63.5399L60.7579 62.6501L62.3898 62.4778C65.1451 62.1865 67.9004 62.9576 69.6184 64.4913C69.643 64.5119 69.6675 64.5366 69.6921 64.557L73.7431 68.2847C73.9891 68.5104 74.1408 68.7687 74.2023 69.0353Z" fill="#6C63FF"/>
<path d="M38.9622 70.777L36.0386 65.0145L32.6748 66.7218L35.5984 72.4843C35.2861 73.3924 35.3554 74.5066 35.8762 75.5332C36.7875 77.3294 38.7311 78.1741 40.2173 77.4197C41.7035 76.6654 42.1696 74.5977 41.2583 72.8015C40.7375 71.7749 39.8792 71.0611 38.9622 70.777Z" fill="#F0A0A3"/>
<path d="M19.1206 44.7231L33.8903 72.3339L39.6652 69.2435L26.7269 40.9524" fill="#6C63FF"/>
<path d="M27.189 51.1938L31.2145 69.8942L13.6704 70.5063C13.6704 70.5063 15.969 57.5192 15.1529 55.2747L27.189 51.1938Z" fill="#F0A0A3"/>
<path d="M30.5404 126.187H34.6401V120.783H30.5404V126.187Z" fill="#F0A0A3"/>
<path d="M29.7104 129.388C29.3597 129.104 29.1704 128.787 29.1478 128.445C29.1219 128.055 29.3172 127.636 29.7283 127.2C29.7382 127.075 29.8658 125.521 30.1501 125.243C30.1262 125.159 29.9814 124.608 30.2188 124.25C30.3306 124.081 30.5109 123.983 30.7546 123.958L30.7652 123.957L30.7704 123.966C30.7773 123.978 31.4691 125.18 32.5098 125.286C33.1064 125.346 33.7037 125.039 34.2852 124.373C34.3061 124.324 34.4704 123.512 34.5764 122.975L34.5807 122.954L40.2508 125.935L43.5652 126.852C43.9818 126.967 44.2727 127.35 44.2727 127.782C44.2727 128.151 44.0581 128.492 43.7259 128.652L42.1194 129.424C41.4481 129.747 40.6996 129.917 39.9547 129.917H31.2402C30.6756 129.917 30.1323 129.729 29.7104 129.388Z" fill="#2F2E43"/>
<path d="M1.99219 123.507L5.92871 124.653L7.43806 119.463L3.50155 118.318L1.99219 123.507Z" fill="#F0A0A3"/>
<path d="M0.301402 126.348C0.0439864 125.978 -0.0492273 125.62 0.0243944 125.286C0.108589 124.904 0.41317 124.556 0.929588 124.253C0.974085 124.135 1.5305 122.679 1.88119 122.491C1.88153 122.405 1.89647 121.835 2.22439 121.557C2.37887 121.427 2.5794 121.383 2.82043 121.426L2.83092 121.428L2.83338 121.439C2.83659 121.452 3.1652 122.8 4.13495 123.192C4.69092 123.416 5.35022 123.289 6.09462 122.811C6.12843 122.77 6.51282 122.037 6.76465 121.55L6.77472 121.531L11.3867 125.978L14.313 127.784C14.6808 128.011 14.8533 128.46 14.7326 128.875C14.6296 129.229 14.3282 129.497 13.9646 129.557L12.2063 129.85C11.4716 129.973 10.7052 129.927 9.99003 129.719L1.62236 127.284C1.08023 127.127 0.6111 126.794 0.301402 126.348Z" fill="#2F2E43"/>
<path d="M11.7748 60.9977L29.3189 61.4058C29.3189 61.4058 39.9799 92.1433 39.5719 121.322H24.9367L24.0678 87.4503L21.5257 122.636L2.23975 121.526L11.7748 60.9977Z" fill="#2F2E43"/>
<path d="M28.555 26.6679C28.555 22.9862 25.571 20.0016 21.8901 20.0016C18.2091 20.0016 15.2251 22.9862 15.2251 26.6679C15.2251 28.9885 16.4111 31.0312 18.2093 32.2251C17.4484 34.2638 16.029 36.0721 16.029 36.0721L22.5974 41.5469L23.8859 33.03C26.5918 32.1816 28.555 29.6542 28.555 26.6679Z" fill="#F0A0A3"/>
<path d="M23.8704 36.2268L16.3224 34.3904L11.4841 40.5867C10.3316 42.9382 10.1497 45.6488 10.9777 48.1333L14.9897 60.1717C14.9897 60.1717 27.2297 59.9677 29.8817 52.8261L30.642 51.2419C31.6812 49.0764 31.4455 46.5147 30.0286 44.5754L23.8704 36.2268Z" fill="#6C63FF"/>
<path d="M15.836 76.0272L15.9761 69.5668L12.2048 69.4849L12.0647 75.9454C11.3611 76.5987 10.8966 77.6138 10.8717 78.7648C10.828 80.7786 12.1433 82.4404 13.8096 82.4765C15.4758 82.5127 16.862 80.9095 16.9057 78.8957C16.9306 77.7448 16.5106 76.7104 15.836 76.0272Z" fill="#F0A0A3"/>
<path d="M10.6294 43.6923V75.0068H17.1789L19.1145 43.9567" fill="#6C63FF"/>
<path d="M18.3747 27.6538C18.3747 27.6538 23.6243 25.9118 22.3303 23.9344C22.3303 23.9344 27.9019 24.9051 28.0457 23.9344C28.1895 22.9636 28.0457 16.7436 20.497 17.7503C12.9483 18.757 13.9548 25.0849 13.9548 25.0849C13.9548 25.0849 14.5059 31.2018 18.5678 32.4602C18.5678 32.4602 15.4271 26.3955 18.3747 27.6538Z" fill="#2F2E43"/>
<path d="M16.7203 21.3239C16.7203 21.3239 15.1701 20.2041 13.3617 20.5486C12.7287 20.6692 12.0588 21.1327 11.4554 21.6844C10.2407 22.7948 9.33941 24.2022 8.75288 25.74C7.17212 29.8847 3.85463 40.2517 9.65864 41.5227C16.9356 43.1162 17.3877 27.7194 17.3877 27.7194L16.7203 21.3239Z" fill="#2F2E43"/>
</g>
<defs>
<clipPath id="clip0_25_1470">
<rect width="112" height="130" fill="white"/>
</clipPath>
</defs>
</svg>
