<svg width="328" height="197" viewBox="0 0 328 197" fill="none" xmlns="http://www.w3.org/2000/svg">
<g clip-path="url(#clip0_7_119)">
<path d="M251.125 194.772C246.925 191.208 244.375 185.576 245.043 180.095C245.712 174.613 249.855 169.573 255.23 168.409C260.604 167.245 266.73 170.467 268.362 175.741C269.261 165.573 270.296 154.979 275.677 146.32C280.55 138.48 288.989 132.87 298.135 131.866C307.282 130.862 316.911 134.653 322.616 141.905C328.32 149.158 329.716 159.701 325.721 168.027C322.778 174.161 317.356 178.725 311.675 182.439C293.318 194.338 271.3 199.177 249.674 196.065L251.125 194.772Z" fill="#F2F2F2"/>
<path d="M313.571 134.863C306.024 141.038 299.101 147.945 292.901 155.483C283.198 167.239 275.346 180.421 269.62 194.567C269.2 195.599 270.869 196.048 271.283 195.028C280.653 172.037 295.612 151.772 314.791 136.089C315.652 135.384 314.425 134.164 313.571 134.863Z" fill="white"/>
<path d="M105.589 193.804C111.356 188.908 114.86 181.173 113.941 173.644C113.022 166.114 107.332 159.192 99.9501 157.594C92.5686 155.995 84.1543 160.421 81.9123 167.664C80.6784 153.699 79.2566 139.148 71.8655 127.255C65.1731 116.486 53.5817 108.78 41.0193 107.402C28.4569 106.023 15.2302 111.23 7.39548 121.191C-0.439255 131.152 -2.35756 145.633 3.12969 157.069C7.17195 165.494 14.6192 171.763 22.4221 176.864C47.316 193.137 78.1969 199.924 107.58 195.579" fill="#F2F2F2"/>
<path d="M19.8182 111.519C30.1838 120 39.6931 129.486 48.2087 139.84C56.7255 150.183 64.2237 161.331 70.5979 173.128C74.1608 179.746 77.3614 186.554 80.1855 193.522C80.7612 194.939 78.47 195.556 77.9006 194.155C72.8985 181.87 66.7099 170.107 59.4237 159.035C52.1728 148.003 43.8738 137.703 34.6432 128.281C29.4223 122.955 23.9139 117.921 18.1428 113.202C16.9599 112.234 18.6451 110.559 19.8182 111.519Z" fill="white"/>
<path d="M235.444 196.569H97.8345V54.7287C97.8345 24.5511 122.273 0 152.313 0H180.966C211.005 0 235.444 24.5511 235.444 54.7287V196.569Z" fill="#F2F2F2"/>
<path d="M206.791 196.569H97.8345V54.7287C97.8044 43.1653 101.449 31.8942 108.238 22.5564C108.489 22.2137 108.738 21.8755 108.996 21.5409C112.28 17.2142 116.187 13.4037 120.59 10.2352C120.839 10.0534 121.089 9.87474 121.342 9.69609C125.026 7.13479 129.012 5.04099 133.208 3.46232C133.457 3.36745 133.71 3.27239 133.964 3.18122C137.759 1.82079 141.692 0.88891 145.692 0.402772C145.94 0.368742 146.195 0.342113 146.449 0.315483C150.347 -0.103208 154.279 -0.103208 158.177 0.315483C158.43 0.342113 158.685 0.368739 158.936 0.403136C162.935 0.889306 166.867 1.82108 170.661 3.18124C170.915 3.27241 171.169 3.36746 171.418 3.46252C175.562 5.02127 179.501 7.08383 183.146 9.60418C183.399 9.77895 183.653 9.9576 183.902 10.1362C186.37 11.906 188.688 13.8777 190.833 16.031C192.553 17.7583 194.156 19.5994 195.63 21.5421C195.887 21.8755 196.137 22.2137 196.386 22.5559C203.176 31.8938 206.821 43.1651 206.791 54.7287V196.569Z" fill="#CCCCCC"/>
<path d="M197.931 133.129C201.262 133.129 203.963 130.416 203.963 127.069C203.963 123.722 201.262 121.009 197.931 121.009C194.6 121.009 191.899 123.722 191.899 127.069C191.899 130.416 194.6 133.129 197.931 133.129Z" fill="#002CC9"/>
<path d="M224.171 192.32H219.548L217.349 174.41L224.171 174.411L224.171 192.32Z" fill="#FFB8B8"/>
<path d="M216.247 190.994H225.161V196.632H210.634C210.634 195.891 210.78 195.158 211.062 194.474C211.344 193.79 211.757 193.169 212.278 192.645C212.799 192.121 213.418 191.706 214.099 191.423C214.78 191.139 215.51 190.994 216.247 190.994Z" fill="#2F2E41"/>
<path d="M247.168 192.32H242.546L240.347 174.41L247.169 174.411L247.168 192.32Z" fill="#FFB8B8"/>
<path d="M239.245 190.994H248.159V196.632H233.632C233.632 195.891 233.777 195.158 234.059 194.474C234.341 193.79 234.755 193.169 235.276 192.645C235.797 192.121 236.416 191.706 237.097 191.423C237.778 191.139 238.508 190.994 239.245 190.994Z" fill="#2F2E41"/>
<path d="M200.984 128.27C200.651 127.777 200.43 127.218 200.336 126.631C200.242 126.043 200.278 125.443 200.44 124.87C200.602 124.298 200.887 123.769 201.275 123.319C201.663 122.87 202.144 122.511 202.684 122.269L218.397 78.7638L226.128 83.0025L208.188 124.578C208.533 125.517 208.523 126.551 208.16 127.484C207.797 128.417 207.106 129.183 206.218 129.638C205.33 130.093 204.307 130.205 203.342 129.953C202.378 129.701 201.538 129.102 200.984 128.27Z" fill="#FFB8B8"/>
<path d="M244.807 136.444C244.294 136.148 243.851 135.743 243.51 135.257C243.169 134.77 242.939 134.215 242.835 133.629C242.731 133.044 242.756 132.442 242.908 131.867C243.061 131.293 243.336 130.758 243.717 130.302L238.849 84.2812L247.648 84.6851L249.671 129.953C250.391 130.645 250.833 131.579 250.914 132.577C250.995 133.575 250.709 134.569 250.109 135.369C249.51 136.169 248.639 136.72 247.662 136.919C246.685 137.117 245.669 136.948 244.807 136.444Z" fill="#FFB8B8"/>
<path d="M230.771 70.7055C235.885 70.7055 240.031 66.5407 240.031 61.4031C240.031 56.2656 235.885 52.1008 230.771 52.1008C225.657 52.1008 221.511 56.2656 221.511 61.4031C221.511 66.5407 225.657 70.7055 230.771 70.7055Z" fill="#FFB8B8"/>
<path d="M244.748 125.978H216.832L216.865 125.76C216.915 125.433 221.841 93.0211 218.208 82.4174C217.844 81.3754 217.876 80.2347 218.298 79.215C218.721 78.1953 219.503 77.3686 220.496 76.894C225.688 74.4377 235.655 71.4131 244.067 78.7533C245.305 79.8512 246.272 81.2234 246.891 82.7613C247.51 84.2993 247.764 85.9607 247.633 87.6144L244.748 125.978Z" fill="#002CC9"/>
<path d="M222.193 97.8111L209.625 95.2496L215.516 81.2248C215.869 79.8664 216.743 78.7039 217.948 77.9924C219.152 77.2808 220.589 77.0783 221.942 77.4292C223.295 77.7801 224.454 78.6558 225.165 79.8642C225.876 81.0725 226.082 82.515 225.735 83.875L222.193 97.8111Z" fill="#002CC9"/>
<path d="M238.29 102.567L237.535 85.1672C236.962 81.8963 238.826 78.8042 241.692 78.2987C244.559 77.7952 247.359 80.0637 247.935 83.3587L250.775 99.6174L238.29 102.567Z" fill="#002CC9"/>
<path d="M243.819 123.895C248.311 141.081 248.801 162.932 247.59 186.766L241.557 186.009L230.624 140.559L224.592 186.766L217.806 186.388C215.778 161.379 213.804 139.91 217.052 125.788L243.819 123.895Z" fill="#2F2E41"/>
<path d="M236.872 68.5923C235.145 70.4408 231.937 69.4485 231.712 66.9231C231.694 66.727 231.695 66.5297 231.715 66.3339C231.832 65.2152 232.475 64.1996 232.321 63.0185C232.286 62.7245 232.177 62.4444 232.004 62.2046C230.628 60.3528 227.396 63.0329 226.097 61.3565C225.3 60.3286 226.237 58.7101 225.626 57.5612C224.819 56.0449 222.429 56.7929 220.93 55.9625C219.263 55.0386 219.363 52.4685 220.46 50.9052C221.799 48.9988 224.146 47.9815 226.463 47.8349C228.781 47.6883 231.083 48.3177 233.247 49.1648C235.705 50.1274 238.143 51.4576 239.656 53.6293C241.496 56.2704 241.673 59.821 240.753 62.9092C240.193 64.7878 238.283 67.0827 236.872 68.5923Z" fill="#2F2E41"/>
<path d="M316.683 196.812H38.3374C38.2185 196.812 38.1047 196.764 38.0208 196.68C37.9369 196.595 37.8898 196.481 37.8898 196.361C37.8898 196.242 37.9369 196.128 38.0208 196.043C38.1047 195.959 38.2185 195.911 38.3374 195.911H316.683C316.802 195.911 316.915 195.959 316.999 196.043C317.083 196.128 317.13 196.242 317.13 196.361C317.13 196.481 317.083 196.595 316.999 196.68C316.915 196.764 316.802 196.812 316.683 196.812Z" fill="#3F3D56"/>
<path d="M176.818 155.475H127.807C127.161 155.478 126.541 155.225 126.082 154.769C125.622 154.314 125.361 153.694 125.356 153.045V43.1449C125.361 42.4964 125.622 41.8765 126.082 41.421C126.541 40.9655 127.161 40.7116 127.807 40.7151H176.818C177.464 40.7116 178.084 40.9655 178.544 41.421C179.003 41.8765 179.264 42.4964 179.269 43.1449V153.045C179.264 153.694 179.003 154.314 178.544 154.769C178.084 155.225 177.464 155.478 176.818 155.475Z" fill="white"/>
<path d="M179.269 76.2754H125.356V77.0329H179.269V76.2754Z" fill="#CCCCCC"/>
<path d="M179.457 119.494H125.545V120.252H179.457V119.494Z" fill="#CCCCCC"/>
<path d="M143.076 40.7151H142.322V155.854H143.076V40.7151Z" fill="#CCCCCC"/>
<path d="M161.926 40.7151H161.172V155.854H161.926V40.7151Z" fill="#CCCCCC"/>
</g>
<defs>
<clipPath id="clip0_7_119">
<rect width="328" height="197" fill="white"/>
</clipPath>
</defs>
</svg>
