<svg width="147" height="171" viewBox="0 0 147 171" fill="none" xmlns="http://www.w3.org/2000/svg">
<g clip-path="url(#clip0_10_259)">
<path d="M110.152 60.084H26.4709C20.2351 60.077 14.2567 57.6034 9.84737 53.2058C5.43799 48.8082 2.95772 42.8458 2.95068 36.6266V26.402C2.95771 20.1828 5.43798 14.2204 9.84735 9.82276C14.2567 5.42514 20.2351 2.95145 26.4709 2.9444H120.404C126.64 2.95145 132.618 5.42514 137.028 9.82276C141.437 14.2204 143.917 20.1828 143.924 26.402C143.914 35.3319 140.353 43.8932 134.021 50.2076C127.69 56.522 119.106 60.0739 110.152 60.084Z" fill="white"/>
<path d="M88.5656 18.3456H33.2514C32.9351 18.3456 32.6317 18.2203 32.408 17.9972C32.1843 17.7741 32.0586 17.4715 32.0586 17.156C32.0586 16.8405 32.1843 16.5379 32.408 16.3148C32.6317 16.0917 32.9351 15.9663 33.2514 15.9663H88.5656C88.882 15.9663 89.1854 16.0917 89.4091 16.3148C89.6328 16.5379 89.7585 16.8405 89.7585 17.156C89.7585 17.4715 89.6328 17.7741 89.4091 17.9972C89.1854 18.2203 88.882 18.3456 88.5656 18.3456Z" fill="#E6E6E6"/>
<path d="M116.567 31.0386H33.2514C32.9351 31.0386 32.6317 30.9133 32.408 30.6902C32.1843 30.4671 32.0586 30.1645 32.0586 29.8489C32.0586 29.5334 32.1843 29.2308 32.408 29.0077C32.6317 28.7846 32.9351 28.6593 33.2514 28.6593H116.567C116.883 28.6593 117.186 28.7846 117.41 29.0077C117.634 29.2308 117.759 29.5334 117.759 29.8489C117.759 30.1645 117.634 30.4671 117.41 30.6902C117.186 30.9133 116.883 31.0386 116.567 31.0386Z" fill="#E6E6E6"/>
<path d="M116.567 43.7315H33.2514C32.9351 43.7315 32.6317 43.6062 32.408 43.3831C32.1843 43.16 32.0586 42.8574 32.0586 42.5419C32.0586 42.2263 32.1843 41.9238 32.408 41.7006C32.6317 41.4775 32.9351 41.3522 33.2514 41.3522H116.567C116.883 41.3522 117.186 41.4775 117.41 41.7006C117.634 41.9238 117.759 42.2263 117.759 42.5419C117.759 42.8574 117.634 43.16 117.41 43.3831C117.186 43.6062 116.883 43.7315 116.567 43.7315Z" fill="#E6E6E6"/>
<path d="M116.567 43.7315H33.2514C32.9351 43.7315 32.6317 43.6062 32.408 43.3831C32.1843 43.16 32.0586 42.8574 32.0586 42.5419C32.0586 42.2263 32.1843 41.9238 32.408 41.7006C32.6317 41.4775 32.9351 41.3522 33.2514 41.3522H116.567C116.883 41.3522 117.186 41.4775 117.41 41.7006C117.634 41.9238 117.759 42.2263 117.759 42.5419C117.759 42.8574 117.634 43.16 117.41 43.3831C117.186 43.6062 116.883 43.7315 116.567 43.7315Z" fill="#E6E6E6"/>
<path d="M82.7286 32.4954C82.7419 32.8538 82.8338 33.2048 82.9978 33.524C83.1618 33.8431 83.394 34.1224 83.678 34.3423C83.962 34.5623 84.2909 34.7174 84.6415 34.7969C84.9921 34.8763 85.3559 34.8781 85.7073 34.8022L90.2564 42.245L92.1925 38.1476L87.5758 31.7079C87.4087 31.1276 87.034 30.6286 86.5227 30.3054C86.0114 29.9823 85.399 29.8574 84.8015 29.9545C84.204 30.0515 83.663 30.3638 83.281 30.8321C82.8989 31.3004 82.7024 31.8922 82.7286 32.4954Z" fill="#FFB6B6"/>
<path d="M116.866 53.8262L101.189 45.3454L96.2446 40.7185C96.2446 40.7185 94.0949 40.1445 94.8862 39.4474C95.6774 38.7503 93.4226 38.078 93.4226 38.078L90.7681 35.5941L86.9961 38.2559L88.0877 39.9436C88.0877 39.9436 88.0126 42.7375 89.5473 42.2C91.0819 41.6625 90.6984 43.9797 90.6984 43.9797L99.8585 58.141L116.866 53.8262Z" fill="#3F3D56"/>
<path d="M70.5896 45.836C79.0466 45.836 85.9023 38.9986 85.9023 30.5642C85.9023 22.1298 79.0466 15.2924 70.5896 15.2924C62.1327 15.2924 55.277 22.1298 55.277 30.5642C55.277 38.9986 62.1327 45.836 70.5896 45.836Z" fill="#002CC9"/>
<path d="M116.915 165.062H113.731L112.216 152.814H116.915V165.062Z" fill="#FFB6B6"/>
<path d="M118.596 170.564H116.312L115.905 168.414L114.861 170.564H108.805C108.515 170.564 108.232 170.472 107.998 170.3C107.764 170.129 107.592 169.887 107.505 169.611C107.419 169.334 107.423 169.038 107.518 168.764C107.613 168.49 107.793 168.254 108.031 168.089L112.867 164.758V162.585L117.954 162.888L118.596 170.564Z" fill="#2F2E41"/>
<path d="M91.4501 165.062H88.2661L86.751 152.814H91.4501V165.062Z" fill="#FFB6B6"/>
<path d="M93.1306 170.564H90.8473L90.4397 168.414L89.3959 170.564H83.34C83.0497 170.564 82.767 170.472 82.5332 170.3C82.2994 170.129 82.1267 169.887 82.0403 169.611C81.9539 169.334 81.9584 169.038 82.053 168.764C82.1477 168.49 82.3276 168.254 82.5665 168.089L87.4025 164.758V162.585L92.4892 162.888L93.1306 170.564Z" fill="#2F2E41"/>
<path d="M113.537 72.4323H97.4666V90.6786H113.537V72.4323Z" fill="#FFB6B6"/>
<path d="M97.8375 81.4321L95.1179 84.6376L90.4205 94.5004L78.5843 122.587L76.0811 128.527L78.1026 139.028C78.1026 139.028 78.4298 146.426 78.4298 147.637C78.4298 150.102 80.4976 151.468 80.4976 151.468L82.0146 159.349L96.7249 158.732C96.7249 158.732 96.2116 150.046 93.1306 147.855C90.0496 145.664 88.6334 134.245 88.6334 134.245L86.9592 129.179L103.277 109.888L103.382 116.631L103.433 119.895C103.433 119.895 101.043 141.123 103.829 145.243C106.614 149.363 103.886 148.878 103.886 148.878L104.018 157.376L121.448 157.499L117.603 133.033C117.603 133.033 115.65 131.495 116.695 129.95C117.74 128.404 115.682 126.511 115.682 126.511L116.605 107.411C116.605 107.411 115.584 104.111 116.785 103.683C117.987 103.254 116.943 100.417 116.943 100.417L117.122 96.7195L113.537 85.254L97.8375 81.4321Z" fill="#7E7E7E"/>
<path d="M113.784 72.4323L115.514 67.2543L116.751 65.5283L117.245 60.5969C117.245 47.282 114.267 49.4992 114.267 49.4992L112.548 44.8163L104.636 44.5697L99.568 49.3779L95.3651 50.8573L93.7192 59.3863L96.7249 68.4871L97.4666 73.4186C96.0517 76.0235 96.1714 74.7914 97.3429 76.7473L111.312 80.5691C116.256 82.2951 116.256 77.8568 115.265 76.7473C114.273 75.6377 113.784 72.4323 113.784 72.4323Z" fill="#3F3D56"/>
<path d="M107.57 42.9145C111.621 42.9145 114.904 39.6397 114.904 35.6C114.904 31.5602 111.621 28.2854 107.57 28.2854C103.519 28.2854 100.236 31.5602 100.236 35.6C100.236 39.6397 103.519 42.9145 107.57 42.9145Z" fill="#FFB6B6"/>
<path d="M117.361 45.3637C117.43 45.48 117.472 45.6103 117.484 45.745C117.495 45.8797 117.476 46.0152 117.428 46.1415C117.38 46.2678 117.304 46.3817 117.205 46.4745C117.107 46.5674 116.989 46.6369 116.859 46.6779C115.875 47.0034 115.27 47.9527 114.563 48.7121C113.858 49.4691 112.723 50.0979 111.823 49.5825C110.926 49.0696 110.864 47.7604 110.112 47.0502C109.381 46.3598 108.164 46.4437 107.304 46.9689L107.278 46.9846C107.13 47.0812 106.956 47.1322 106.779 47.1314C106.601 47.1306 106.428 47.078 106.281 46.9801C106.133 46.8822 106.017 46.7433 105.948 46.5806C105.879 46.4178 105.859 46.2384 105.891 46.0644C106.192 44.4655 106.493 42.8667 106.795 41.2681C106.003 43.1693 104.854 44.9018 103.41 46.3722C103.012 46.8301 102.508 47.1839 101.941 47.4028C101.427 47.5656 100.928 47.0354 100.428 47.1316C101.669 46.0491 105.843 39.1106 105.096 34.4726C104.218 34.5712 103.341 34.6699 102.463 34.7685C102.368 34.3543 102.165 33.9724 101.875 33.6614C101.91 34.0646 101.859 34.4706 101.724 34.8523C101.358 34.8943 100.99 34.9337 100.624 34.9756C100.114 35.0323 99.5606 35.0816 99.123 34.8154C98.3936 34.3715 98.3714 33.3211 98.5791 32.4926C99.1873 30.0836 101.032 28.0692 103.289 27.0138C105.546 25.961 106.214 28.3059 108.592 27.5563C113.289 26.0769 116.889 28.6067 118.157 33.3014C119.223 37.2392 118.449 41.4185 117.361 45.3637Z" fill="#2F2E41"/>
<path d="M137.666 170.723H128.685L128.646 170.654C128.532 170.446 128.421 170.226 128.317 170C127.392 168.024 127.001 165.766 126.656 163.772L126.396 162.27C126.365 162.088 126.389 161.901 126.464 161.733C126.54 161.564 126.665 161.422 126.822 161.325C126.979 161.227 127.162 161.179 127.347 161.186C127.532 161.192 127.711 161.254 127.86 161.363C129.225 162.353 130.591 163.343 131.956 164.331C132.474 164.707 133.064 165.141 133.63 165.61C133.684 165.346 133.742 165.081 133.799 164.819C133.838 164.639 133.93 164.474 134.064 164.346C134.198 164.219 134.367 164.133 134.549 164.102C134.732 164.07 134.92 164.094 135.089 164.17C135.258 164.245 135.4 164.369 135.498 164.526L136.549 166.21C137.315 167.439 137.992 168.651 137.854 169.958C137.855 169.974 137.853 169.99 137.85 170.005C137.823 170.22 137.772 170.431 137.698 170.634L137.666 170.723Z" fill="#F0F0F0"/>
<path d="M146.679 170.917L61.3409 171C61.2557 171 61.1741 170.966 61.1141 170.905C61.054 170.845 61.0203 170.764 61.0203 170.679C61.0203 170.594 61.054 170.512 61.1141 170.452C61.1741 170.392 61.2557 170.358 61.3409 170.357L146.679 170.274C146.765 170.275 146.846 170.309 146.906 170.369C146.966 170.429 147 170.511 147 170.596C147 170.681 146.966 170.762 146.906 170.822C146.846 170.883 146.765 170.917 146.679 170.917Z" fill="#CACACA"/>
<path d="M69.1977 51.1189L59.8108 43.2129C59.49 42.9421 59.29 42.5553 59.2546 42.1376C59.2193 41.7198 59.3516 41.3052 59.6225 40.9846L61.3501 38.9442C61.6217 38.6242 62.0095 38.4247 62.4283 38.3895C62.8472 38.3543 63.263 38.4862 63.5844 38.7564L72.9713 46.6624C73.2922 46.9332 73.4922 47.3199 73.5275 47.7377C73.5628 48.1554 73.4305 48.5701 73.1597 48.8907L71.432 50.931C71.1604 51.251 70.7727 51.4505 70.3538 51.4857C69.9349 51.521 69.5192 51.389 69.1977 51.1189Z" fill="#3F3D56"/>
<path d="M60.3034 41.1491C60.1574 41.3219 60.0862 41.5453 60.1052 41.7704C60.1242 41.9955 60.232 42.2039 60.4049 42.3499L69.7918 50.2559C69.965 50.4014 70.1891 50.4725 70.4148 50.4536C70.6405 50.4346 70.8495 50.3271 70.9958 50.1546L72.7235 48.1143C72.8694 47.9415 72.9407 47.7181 72.9217 47.493C72.9027 47.2678 72.7949 47.0595 72.622 46.9135L63.2351 39.0075C63.0619 38.8619 62.8378 38.7909 62.6121 38.8098C62.3864 38.8288 62.1774 38.9363 62.0311 39.1087L60.3034 41.1491Z" fill="white"/>
<path d="M65.8141 44.2225C65.7815 44.268 65.7388 44.3052 65.6892 44.3313C65.6397 44.3575 65.5848 44.3717 65.5288 44.373L64.0539 44.4068C64.0065 44.4079 63.9594 44.3996 63.9152 44.3825C63.871 44.3655 63.8306 44.3399 63.7963 44.3072C63.7621 44.2746 63.7346 44.2355 63.7154 44.1923C63.6963 44.149 63.6859 44.1025 63.6848 44.0552C63.6837 44.0079 63.692 43.9609 63.7091 43.9169C63.7262 43.8728 63.7519 43.8325 63.7846 43.7983C63.8173 43.7641 63.8565 43.7367 63.8999 43.7176C63.9432 43.6986 63.9899 43.6882 64.0373 43.6871L65.0022 43.665L64.052 41.1644C64.0183 41.0752 64.0215 40.9763 64.0609 40.8894C64.1002 40.8026 64.1725 40.7348 64.2619 40.701C64.3512 40.6673 64.4504 40.6702 64.5376 40.7092C64.6248 40.7483 64.6929 40.8202 64.727 40.9092L65.858 43.8856C65.8784 43.9394 65.8856 43.9974 65.879 44.0546C65.8724 44.1118 65.8521 44.1665 65.8198 44.2143L65.8141 44.2225Z" fill="#002CC9"/>
<path d="M66.0032 44.8509C66.3589 44.903 66.6989 45.0323 66.9991 45.2296C67.2993 45.4269 67.5525 45.6875 67.7409 45.9929C67.9292 46.2984 68.0481 46.6413 68.0891 46.9976C68.1302 47.3538 68.0924 47.7147 67.9785 48.0548L74.9024 53.3741L70.6079 54.8481L64.6912 49.5708C64.131 49.3421 63.6743 48.9163 63.4078 48.3743C63.1413 47.8322 63.0834 47.2115 63.2452 46.6297C63.4069 46.0479 63.777 45.5455 64.2853 45.2176C64.7936 44.8898 65.4049 44.7593 66.0032 44.8509Z" fill="#FFB6B6"/>
<path d="M102.051 47.481L84.3233 58.3514C84.3233 58.3514 77.1758 55.7139 78.5726 54.4929C79.9695 53.2719 75.5227 52.4465 75.5227 52.4465L70.6102 49.1503L67.7596 52.4544C67.7596 52.4544 68.279 57.8211 69.1628 56.8918C70.0466 55.9626 71.3676 58.5011 71.3676 58.5011C71.3676 58.5011 71.7579 61.3355 74.2737 60.6222C76.7894 59.9089 83.5399 67.3857 83.5399 67.3857L105.357 59.2705L102.051 47.481Z" fill="#3F3D56"/>
<path d="M70.0511 36.6903C69.8456 36.6903 69.6429 36.6426 69.4591 36.5509C69.2753 36.4592 69.1155 36.3261 68.9922 36.1621L65.7454 31.8446C65.6411 31.7059 65.5653 31.5481 65.5221 31.3801C65.479 31.2122 65.4694 31.0374 65.494 30.8658C65.5186 30.6941 65.5769 30.529 65.6654 30.3798C65.754 30.2306 65.8712 30.1003 66.0103 29.9963C66.2911 29.7862 66.6442 29.696 66.9917 29.7455C67.1638 29.7701 67.3294 29.8282 67.479 29.9165C67.6286 30.0048 67.7592 30.1217 67.8635 30.2604L69.9877 33.0848L75.4432 24.9234C75.638 24.6321 75.9408 24.4298 76.2851 24.3612C76.6294 24.2925 76.9869 24.363 77.2791 24.5573C77.5712 24.7515 77.774 25.0535 77.8429 25.3969C77.9117 25.7402 77.841 26.0968 77.6462 26.3882L71.1527 36.1024C71.0353 36.2781 70.8773 36.4231 70.692 36.5253C70.5068 36.6276 70.2996 36.684 70.088 36.6899C70.0757 36.6901 70.0634 36.6903 70.0511 36.6903Z" fill="white"/>
</g>
<defs>
<clipPath id="clip0_10_259">
<rect width="147" height="171" fill="white"/>
</clipPath>
</defs>
</svg>
